<svg xmlns="http://www.w3.org/2000/svg" viewBox="0 0 2880 1620">
  <path d="M 440 196 C 423.2 198.4 371.5 209.6 315.5 223 C 306.2 225.2 294 228.1 288.5 229.4 C 283 230.7 271.5 233.5 263 235.5 C 254.5 237.6 245 239.8 242 240.5 C 239 241.2 231.1 243.2 224.5 244.8 C 217.9 246.5 207.1 249 200.5 250.5 C 184.7 254 180.1 255.6 177.3 258.2 C 172.6 262.6 174.8 267 188.9 281.1 C 194.4 286.5 210.6 303.2 252.5 346.5 C 287.6 382.7 311.4 407.2 334.2 430.5 C 342.8 439.3 352.1 448.8 354.7 451.5 C 357.3 454.3 371.9 469.3 387.1 485 C 402.2 500.7 417.5 516.6 421 520.5 C 424.5 524.3 429.2 529.3 431.5 531.5 C 436.6 536.6 463 563.8 497.5 599.5 C 534.5 637.7 533.5 636.8 551.5 655.2 C 564.5 668.4 612.9 718.4 621.7 727.7 C 625.4 731.5 630.3 730.6 632.4 725.6 C 633.7 722.5 634 711.5 635.5 609 C 635.8 592.2 636.3 556.9 636.8 530.5 C 638 446.5 637.7 390.8 635.7 372.5 C 632 339.4 628.6 325.7 617.8 302 C 597.8 258 561.5 223 519 206.7 C 506.8 202.1 500.5 200.1 493.5 198.9 C 489.7 198.3 484.9 197.3 483 196.8 C 478 195.5 447.7 194.9 440 196 Z" stroke="none" style="fill: rgb(3, 0, 71);"/>
  <path d="M 1382 289.6 C 1368 292.4 1364 293.4 1358.7 295.5 C 1345 301.1 1332.6 311.8 1327.7 322.3 C 1322.1 334.2 1320.6 349.2 1323.9 361.5 C 1326.3 370.8 1328.9 375.6 1335.2 382.5 C 1345.2 393.5 1353.4 397.4 1391 409.5 C 1403.2 413.4 1412.7 418.6 1416.1 423.3 C 1418.5 426.7 1419 428.3 1419 433.4 C 1419 445.2 1411.7 451.4 1397.5 451.4 C 1386.6 451.5 1380.9 448.7 1376.3 441.1 C 1374.5 438.2 1373 434.6 1372.8 433.2 C 1372.6 431.3 1371.7 430.4 1369.5 429.8 C 1365.4 428.6 1323.7 429.2 1322.8 430.5 C 1320.3 433.9 1324.7 450.9 1330.4 459.5 C 1338.8 472.2 1351.5 481 1370 486.8 C 1381.4 490.4 1409 490.7 1422 487.4 C 1429 485.6 1440.3 480.3 1446 476.2 C 1455.5 469.3 1462.4 460 1466.6 448.3 C 1469.9 439.4 1470.3 422.1 1467.4 413.8 C 1463.3 402 1452.6 390.3 1439.9 384 C 1432.4 380.2 1426.8 377.9 1409.6 371.9 C 1378.2 360.8 1373 357 1373 345 C 1373 333.4 1381 327.2 1394.7 328.3 C 1399.4 328.6 1402.3 329.5 1405.7 331.6 C 1409.9 334.3 1411 335.8 1415.2 344.5 L 1416.6 347.5 L 1440.4 347.8 C 1456.6 348 1464.7 347.7 1465.6 346.9 C 1468.5 344.5 1464 327 1458.3 318.6 C 1448.8 304.5 1433.8 295.2 1414.5 291.3 C 1407.2 289.9 1386.3 288.8 1382 289.6 Z" stroke="none" style="fill: rgb(3, 0, 71);"/>
  <path d="M 640.1 292.9 C 639.3 294.2 640.3 299.6 643.9 313.6 C 646.6 324 649.5 336.3 650.5 341 C 651.4 345.7 652.5 351.3 653 353.5 C 657.3 373.8 657.4 415.4 653.4 681.7 C 652.8 723.7 652.9 728.2 654.4 730.5 C 655.4 732.1 657 733 658.6 733 C 661.1 733 663.8 730.7 684.1 710.9 C 688.8 706.3 703.9 691.7 717.5 678.5 C 754.7 642.5 756.1 641.2 788.5 609.7 C 805 593.6 826.1 573.1 835.5 564 C 867.7 532.8 868.8 531.7 869.5 527.6 C 869.9 525.5 869.9 523 869.4 522 C 868.5 520.1 858.2 509.2 827.2 477.5 C 803.1 452.8 781.4 430.5 761.5 409.9 C 717.2 364.1 678.8 324.7 663 308.7 C 645.1 290.7 642.3 288.8 640.1 292.9 Z" stroke="none" style="fill: rgb(3, 0, 71);"/>
  <path d="M 1503.7 292.7 C 1503.3 293 1503 322.9 1503 359.1 C 1503 420.2 1503.1 425.4 1504.9 432.7 C 1509.5 451.8 1520.2 467.8 1534.3 476.7 C 1547.6 485.1 1559.6 488.7 1577.5 489.6 C 1619.3 491.9 1651.2 472.2 1662.6 437 C 1666.3 425.8 1667 412.2 1667 352.4 C 1667 304.2 1666.8 294 1665.6 293.1 C 1664.7 292.3 1657.5 292 1641.9 292.2 L 1619.5 292.5 L 1619 356 C 1618.6 405.8 1618.2 420.3 1617.1 423 C 1610.5 440.3 1602.7 445.5 1583.5 445.5 C 1575.3 445.5 1572.6 445 1568.5 443.2 C 1559.3 439 1554 432.2 1551.5 421.5 C 1550.2 415.9 1550 405.3 1550 354 C 1550 299.5 1549.8 293.2 1548.4 292.6 C 1546.3 291.8 1504.5 291.8 1503.7 292.7 Z" stroke="none" style="fill: rgb(3, 0, 71);"/>
  <path d="M 1705.2 293.2 C 1704.3 294.1 1704 316.3 1704 389.9 C 1704 442.5 1704.4 486.1 1704.8 486.8 C 1705.5 487.7 1710.9 488 1728.6 487.8 L 1751.5 487.5 L 1752 431.8 C 1752.3 401.2 1752.8 375.8 1753.3 375.4 C 1753.7 375 1754 375.4 1754 376.3 C 1754 377.1 1754.6 379.1 1755.4 380.7 C 1756.2 382.2 1757.5 385.3 1758.4 387.5 C 1759.9 391.5 1765.1 405.4 1767.5 412 C 1768.2 413.9 1769.5 417.3 1770.3 419.5 C 1771.1 421.7 1773.3 427.3 1775 432 C 1776.8 436.7 1778.6 441.4 1779.1 442.5 C 1779.5 443.6 1780.8 447 1781.9 450 C 1785.5 460.3 1786.3 462.5 1787.5 465.5 C 1789.6 470.9 1794.8 484.5 1795.4 486.2 C 1795.9 487.8 1797.7 488 1815.3 488 L 1834.7 488 L 1836.5 483.2 C 1837.5 480.6 1838.8 477.1 1839.5 475.5 C 1840.2 473.8 1841.7 469.8 1842.9 466.5 C 1844 463.2 1845.9 458 1847 455 C 1848.2 452 1849.5 448.4 1850 447 C 1850.7 444.6 1851.8 441.9 1854.6 435.3 C 1855.4 433.6 1856 431.7 1856 431.1 C 1856 430.5 1856.4 429.2 1856.9 428.2 C 1857.5 427.3 1859.5 422 1861.5 416.5 C 1863.4 411 1865.5 405.6 1866 404.5 C 1866.5 403.4 1868.9 396.9 1871.4 390 C 1874.1 382.5 1876.4 377.5 1877.2 377.5 C 1878.3 377.5 1878.5 387.3 1878.7 431.5 C 1878.9 461.2 1879.1 486.1 1879.2 486.8 C 1879.4 487.9 1884.1 488.1 1902.5 488 C 1915.1 488 1925.5 487.8 1925.7 487.6 C 1926.3 487 1926.1 294 1925.5 293 C 1924.5 291.4 1871.5 291.7 1870.2 293.3 C 1869.6 294 1865.9 302.6 1862 312.5 C 1858.1 322.4 1854.5 331.4 1854 332.5 C 1853.5 333.6 1850.3 341.5 1847 350 C 1843.6 358.5 1839.5 368.9 1837.8 373 C 1836.1 377.1 1833.4 383.9 1831.8 388 C 1830.1 392.1 1828.2 396.8 1827.5 398.5 C 1826.8 400.1 1824.4 406.2 1822.1 412 C 1817.2 424.2 1816.6 425.5 1815.2 424.7 C 1814.7 424.3 1812.4 419.4 1810.1 413.8 C 1802.2 394.5 1797.3 382.4 1796 379.5 C 1795.5 378.4 1792.4 370.5 1789 362 C 1785.7 353.5 1782.5 345.6 1782 344.5 C 1781.5 343.4 1778.8 336.9 1776 330 C 1773.2 323.1 1770.5 316.6 1770.1 315.5 C 1769.6 314.4 1768.4 311.5 1767.5 309 C 1764 300 1762.9 297.5 1761.7 295 L 1760.4 292.5 L 1733.4 292.2 C 1713.3 292 1706.1 292.3 1705.2 293.2 Z" stroke="none" style="fill: rgb(3, 0, 71);"/>
  <path d="M 1965.7 292.7 C 1965.3 293 1965 337.1 1965 390.7 L 1965 488 L 1988.4 488 C 2008.8 488 2011.9 487.8 2012.4 486.4 C 2012.7 485.5 2013 460.8 2013 431.4 C 2013 389.3 2013.3 378 2014.3 378 C 2015.4 378 2018.7 386.1 2025.7 405.5 C 2027 409.3 2028.8 414.1 2029.5 416 C 2030.3 417.9 2032.3 423.3 2034 428 C 2038.3 439.5 2039.7 443.3 2041.4 447.7 C 2042.2 449.8 2044.3 455.3 2046 460 C 2050.8 472.8 2054 481.1 2055.6 484.7 L 2057 488 L 2075.9 488 L 2094.8 488 L 2096.3 484.7 C 2097.1 483 2099 478.1 2100.5 474 C 2107.2 455.5 2109.2 450.3 2110.6 447.7 C 2111.4 446.1 2112 444.2 2112 443.5 C 2112 442.7 2112.6 440.6 2113.4 438.8 C 2114.2 437 2116.3 431.7 2118 427 C 2119.8 422.3 2121.8 416.9 2122.5 415 C 2123.3 413.1 2125.3 407.4 2127.1 402.5 C 2128.9 397.5 2130.7 393 2131 392.5 C 2131.4 391.9 2132 390.3 2132.3 388.9 C 2132.7 387.5 2133.9 384.2 2135.2 381.4 L 2137.4 376.5 L 2138.1 379.5 C 2138.5 381.1 2138.8 406.2 2138.9 435.3 L 2139 488 L 2162.8 487.8 L 2186.5 487.5 L 2186.5 390 L 2186.5 292.5 L 2160.5 292.2 C 2146.2 292.1 2133.6 292.2 2132.5 292.4 C 2130.5 292.9 2129.2 295.3 2125.3 305.5 C 2124.5 307.7 2123.2 310.8 2122.5 312.5 C 2120.1 318 2115.2 330.4 2111.5 340 C 2109.4 345.2 2106.8 352 2105.5 355 C 2102.5 362.1 2096.7 376.6 2089 396 C 2085.6 404.5 2082.3 412.8 2081.6 414.5 C 2080.8 416.1 2079.6 419.2 2078.9 421.2 C 2078.2 423.3 2077.1 425 2076.4 425 C 2075.4 425 2071.8 417.4 2067.3 405.5 C 2066.4 403.3 2064.9 399.6 2063.9 397.3 C 2062.8 394.9 2058.8 385 2054.9 375.3 C 2048.2 358.4 2044.5 349.3 2041.5 342.5 C 2040.8 340.8 2039.5 337.5 2038.5 335 C 2037.5 332.5 2036.2 329.1 2035.5 327.5 C 2034.8 325.8 2031.6 318 2028.5 310 C 2025.3 302 2022.1 294.7 2021.2 293.7 C 2019.8 292.2 2017.2 292 1993 292 C 1978.3 292 1966 292.3 1965.7 292.7 Z" stroke="none" style="fill: rgb(3, 0, 71);"/>
  <path d="M 2225.5 294.2 C 2225.2 295.5 2225.1 339.5 2225.2 392 L 2225.5 487.5 L 2284.9 487.8 C 2331.8 488 2344.5 487.8 2345.2 486.8 C 2346.4 484.9 2346.2 454.2 2345 451.9 C 2344 450.1 2342.5 450 2309.1 450 C 2278.2 450 2274.1 449.8 2273.6 448.4 C 2273.3 447.5 2273 438.4 2273 428 C 2273 413.6 2273.3 409 2274.3 408.1 C 2275.2 407.4 2285.7 406.9 2306.1 406.8 L 2336.5 406.5 L 2336.8 389.1 C 2337 375.8 2336.7 371.5 2335.8 370.8 C 2335.1 370.4 2320.9 370 2304.4 370 C 2277.8 370 2274.1 369.8 2273.6 368.4 C 2272.6 365.9 2272.9 333.7 2273.9 332.1 C 2274.7 330.9 2280.5 330.6 2309.5 330.6 C 2339.1 330.5 2344.2 330.3 2345 329 C 2346.1 327.4 2346.3 297.9 2345.4 294.2 L 2344.8 292 L 2285.4 292 L 2226 292 L 2225.5 294.2 Z" stroke="none" style="fill: rgb(3, 0, 71);"/>
  <path d="M 2381 390 L 2381 488 L 2404.5 488 L 2428 488 L 2428 452.9 C 2428 430.7 2428.4 417.2 2429 415.9 C 2429.8 414.5 2431.1 414 2434.5 414 C 2439.1 414 2440.8 415.5 2445 423.4 C 2450.2 433.2 2455.3 442.6 2460 451 C 2462.9 456.2 2466.3 462.3 2467.5 464.5 C 2468.7 466.7 2472 472.9 2475 478.2 L 2480.4 488 L 2506.7 488 C 2528 488 2533 487.7 2533 486.7 C 2533 485.9 2529 478.6 2524.2 470.4 C 2509.6 445.8 2501.3 431.7 2499.3 428 C 2498.2 426.1 2495.9 421.9 2494.1 418.8 C 2492.3 415.6 2491 412.3 2491.2 411.5 C 2491.4 410.6 2494.6 408.6 2498.3 407 C 2534.8 391.6 2544.6 341.5 2516.7 312.6 C 2509.6 305.3 2503.5 301.3 2493.7 297.6 C 2480.3 292.6 2473.3 292 2425.3 292 L 2381 292 L 2381 390 Z M 2472.7 334.7 C 2487.5 342.6 2488 367.7 2473.6 376.5 C 2468.7 379.5 2468.5 379.5 2450.6 380 C 2440.6 380.3 2431.8 380.3 2430.8 380.2 C 2428.3 379.6 2428 377.1 2428 354.9 C 2428 339.8 2428.3 334.1 2429.3 333.1 C 2430.2 332.2 2435 331.9 2449.5 332.2 C 2466.8 332.5 2468.9 332.7 2472.7 334.7 Z" stroke="none" style="fill: rgb(3, 0, 71);"/>
  <path d="M 1128.5 298.1 C 1127.4 298.7 1124.2 301.5 1121.5 304.4 C 1118.7 307.2 1109.2 316.5 1100.4 325 C 1091.7 333.5 1076.8 347.9 1067.5 357 C 1046.7 377.2 988.5 433.8 966.1 455.5 C 957 464.3 947.3 473.7 944.5 476.5 C 933.4 487.3 883.9 535.1 874.5 544 C 864.1 553.9 832.9 584.2 822.4 594.5 C 819.1 597.8 805.4 611.1 792 624 C 778.7 636.9 763.2 652 757.5 657.5 C 747.7 667.2 700.9 712.6 682.5 730.5 C 677.6 735.3 671.6 740.8 669.3 742.7 C 665.9 745.5 665 746.9 665 749.5 C 665 751.4 665.8 753.4 667 754.5 C 668.9 756.2 671.5 756.4 697.3 756.6 C 712.8 756.8 739.2 757.2 756 757.5 C 772.8 757.8 807.2 758.2 832.5 758.5 C 881.5 759 921.5 759.8 937 760.6 C 942.2 760.9 956.4 761.2 968.5 761.2 C 1041.8 761.5 1080.1 752.9 1119.5 727.2 C 1138 715.1 1156.8 696.9 1168.3 679.7 C 1181.6 659.7 1188.5 644 1194.2 620.5 C 1198.1 604 1199.2 573.6 1196.4 555.2 C 1194.7 543.9 1186.8 503.8 1182.6 485.5 C 1181.2 479.4 1178.8 469.3 1177.4 463 C 1174.4 449.5 1169.3 428.5 1157.6 381 C 1153 362 1148.2 342.4 1147.1 337.5 C 1145.9 332.5 1144.6 326.9 1144 325 C 1143.5 323.1 1142 317.1 1140.6 311.7 C 1137.1 297.7 1134.6 294.8 1128.5 298.1 Z" stroke="none" style="fill: rgb(3, 0, 71);"/>
  <path d="M 407 536.7 C 406.2 537 398.5 544 390 552.4 C 373.8 568.1 335.7 604.8 326.5 613.5 C 323.6 616.2 305.3 634 285.9 653 C 266.5 672 243.1 694.7 234.1 703.5 C 225 712.3 210.1 726.7 201.1 735.5 C 192 744.3 182.2 753.8 179.3 756.6 C 176.1 759.7 174 762.6 174 763.9 C 174 766.6 178 768.6 180.6 767.2 C 184.2 765.3 221.2 756.3 234.5 754.1 C 238.4 753.4 244 752.5 247 752 C 268 748.5 323.1 747.6 411.5 749.2 C 432.4 749.6 477.9 750.2 512.5 750.5 C 547.2 750.8 584.1 751.3 594.6 751.6 L 613.7 752.2 L 615.8 749.5 C 617.1 747.8 617.6 746.2 617.2 745 C 616.8 744 603.2 729.6 587 712.9 C 570.8 696.2 552.3 677.2 546 670.6 C 539.7 664.1 532 656.2 529 653.1 C 512.4 636.2 439.8 561.1 428.4 549.2 C 424.1 544.6 419.4 540 418 539 C 415.2 537 409.4 535.8 407 536.7 Z" stroke="none" style="fill: rgb(3, 0, 71);"/>
  <path d="M 1373.5 603 C 1360.2 606 1354.3 608.3 1346.1 614 C 1334.2 622 1327 632.1 1323.9 645 C 1319.3 664.5 1323.5 682 1335.8 694.5 C 1345.2 704.1 1355.9 709.9 1376 716.2 C 1405.1 725.3 1413.7 729.6 1417.5 737.1 C 1420.6 743 1419.2 753 1414.5 757.5 C 1409.8 762.1 1399.9 764.1 1389.5 762.6 C 1382.2 761.5 1373 751.7 1373 745.1 C 1373 741.4 1370.1 741 1345.8 741.2 L 1322.5 741.5 L 1322.2 745.1 C 1322 747.2 1322.6 751.6 1323.5 755.1 C 1328.8 775.6 1344.7 790.6 1369 798.1 C 1374.6 799.8 1390.9 802 1398.3 802 C 1423 802.1 1447 791.6 1457.7 776.2 C 1466.9 762.9 1469.3 755.7 1469.2 740.9 C 1469.1 727.8 1467.1 721.3 1460.2 712.2 C 1451.4 700.6 1438.4 693.3 1407.4 682.7 C 1378.6 672.8 1373 668.5 1373 656.2 C 1373 649.9 1373.1 649.6 1377.3 645.5 C 1383.6 639.2 1390.2 637.7 1399.8 640.5 C 1406.5 642.5 1412.4 648 1413.9 653.8 C 1414.8 657 1415.8 658.4 1417.8 659.1 C 1419.5 659.8 1428.9 660 1442.8 659.8 C 1461.1 659.6 1465.2 659.2 1466 658 C 1468.3 654.3 1463.4 638 1457.3 629.2 C 1454 624.4 1444.5 615.4 1439.5 612.3 C 1423.1 602.2 1394.9 598.2 1373.5 603 Z" stroke="none" style="fill: rgb(3, 0, 71);"/>
  <path d="M 1492.6 606.2 C 1491.6 610.1 1491.9 638 1493 640.1 C 1494 641.9 1495.4 642 1517.8 642 C 1535 642 1541.9 642.3 1542.8 643.2 C 1543.7 644.1 1544 662.8 1544 721 C 1544 779.2 1544.3 797.9 1545.2 798.8 C 1546.8 800.4 1590.6 800.5 1591.5 798.9 C 1591.9 798.4 1592.2 764.1 1592.2 722.8 C 1592.2 681.5 1592.6 646.5 1592.9 645.1 L 1593.6 642.5 L 1618.6 642 L 1643.5 641.5 L 1643.8 622.7 L 1644 604 L 1568.6 604 L 1493.2 604 L 1492.6 606.2 Z" stroke="none" style="fill: rgb(3, 0, 71);"/>
  <path d="M 1728.6 609.2 C 1727.3 612.1 1725.9 615.6 1725.5 617 C 1724.8 619.6 1716.4 642.9 1715 646.5 C 1712.9 651.6 1700 687.8 1700 688.5 C 1700 688.9 1699.4 690.6 1698.6 692.3 C 1697.8 694.1 1695.6 700 1693.6 705.5 C 1691.7 711 1689.2 718 1688 721 C 1686.9 724 1685 729.2 1683.9 732.5 C 1681.9 738.2 1674.3 759.1 1665.8 782.3 C 1663.6 788.3 1661.7 794.6 1661.6 796.3 L 1661.5 799.5 L 1684.5 799.7 C 1697.2 799.9 1708.1 799.6 1708.7 799.2 C 1709.4 798.7 1712.4 791.3 1715.4 782.6 C 1718.4 773.9 1721.4 766.4 1722.2 765.9 C 1722.9 765.4 1739.1 765 1758.2 765 L 1793 765 L 1794.4 767.2 C 1795.2 768.5 1797.9 775.8 1800.5 783.5 C 1803.1 791.2 1805.6 798.1 1806.2 798.7 C 1807 799.7 1813.2 800 1831 800 C 1851 800 1854.9 799.8 1855.4 798.5 C 1855.7 797.7 1854.1 792.2 1851.8 786.3 C 1844.5 766.9 1841.9 759.5 1841 756.5 C 1840.5 754.8 1839.2 751 1838 748 C 1834.8 739.7 1833.5 736.1 1831.1 729 C 1829.8 725.4 1828.2 721.1 1827.4 719.3 C 1826.6 717.6 1826 715.5 1826 714.7 C 1826 713.8 1825.6 712.8 1825 712.5 C 1824.5 712.2 1824 711.2 1824 710.3 C 1824 709.4 1822.7 705.3 1821.1 701.1 C 1819.5 696.9 1816.8 689.4 1815 684.5 C 1813.2 679.5 1811.2 673.9 1810.5 672 C 1808.8 667.6 1800.6 644.8 1797.3 635.5 C 1796 631.6 1794.2 626.8 1793.4 624.7 C 1792.6 622.7 1791.4 619.3 1790.6 617.2 C 1789.8 615.2 1788.3 611.4 1787.3 608.8 L 1785.5 604 L 1758.2 604 L 1730.9 604 L 1728.6 609.2 Z M 1760.9 665.9 C 1762 669.1 1763 672 1763 672.5 C 1763 672.9 1763.6 674.6 1764.4 676.3 C 1765.1 678.1 1767.4 684.4 1769.4 690.5 C 1771.4 696.5 1775 707 1777.2 713.7 C 1779.9 721.6 1781.1 726.3 1780.4 727 C 1778.9 728.5 1735.7 728.5 1735.1 726.9 C 1734.7 725.7 1739.1 711.1 1741.6 705.2 C 1742.4 703.4 1743 701.3 1743 700.5 C 1743 699.6 1743.4 698.2 1743.9 697.2 C 1744.5 696.3 1746.5 690.3 1748.6 684 C 1750.6 677.7 1752.6 671.7 1753.1 670.8 C 1753.6 669.8 1754 668.5 1754 667.9 C 1754 666.2 1757.1 660 1758 660 C 1758.4 660 1759.7 662.6 1760.9 665.9 Z" stroke="none" style="fill: rgb(3, 0, 71);"/>
  <path d="M 1882.7 604.7 C 1882.3 605 1882 648.6 1882 701.5 C 1882 782 1882.2 797.9 1883.4 798.9 C 1884.3 799.7 1891.5 800 1907.1 799.8 L 1929.5 799.5 L 1930 763 C 1930.3 742.9 1930.7 726.4 1930.8 726.2 C 1930.9 726.1 1933.2 726 1935.8 726 C 1939.2 726 1941.1 726.5 1942.2 727.7 C 1943.5 729.3 1948.4 737.9 1957.7 755 C 1959.3 758 1963.1 764.8 1966 770 C 1973.5 783.6 1977.1 790 1979.1 793.8 C 1982.5 800.3 1980.9 800 2008.7 800 C 2030.6 800 2034.1 799.8 2034.7 798.5 C 2035 797.6 2034.6 796.2 2033.7 795.2 C 2032.9 794.3 2031.2 791.5 2029.8 789 C 2028.5 786.5 2024.1 778.9 2020.1 772 C 2016.1 765.1 2010.1 754.8 2006.7 749 C 2003.4 743.2 2000 737.4 1999.1 736 C 1998.2 734.6 1997 732.5 1996.3 731.3 C 1995.7 730.1 1994.4 727.7 1993.4 726.1 C 1992.4 724.4 1991.8 722.9 1992.1 722.7 C 1992.3 722.5 1996.4 720.4 2001.2 718.1 C 2016.3 710.9 2026.4 699.5 2031.7 683.7 C 2035.1 673.8 2035.2 657.7 2032.1 647.5 C 2025.2 625.3 2008 610.8 1982 605.4 C 1977 604.3 1964.6 604 1929.4 604 C 1904.1 604 1883 604.3 1882.7 604.7 Z M 1971.2 645 C 1976.1 646.4 1980.6 650.3 1983.2 655.4 C 1986 660.8 1986.3 673.8 1983.7 679.3 C 1981.2 684.6 1974.9 689.4 1969 690.8 C 1962 692.4 1932.8 692.4 1931.2 690.8 C 1929.9 689.5 1929.4 645.9 1930.7 644.7 C 1931.7 643.6 1967.2 643.9 1971.2 645 Z" stroke="none" style="fill: rgb(3, 0, 71);"/>
  <path d="M 2058.7 604.7 C 2057.4 605.9 2057.9 639.5 2059.2 640.8 C 2060.1 641.7 2067 642 2084.1 642 C 2102 642 2108.1 642.3 2108.7 643.2 C 2109.1 643.9 2109.7 679.4 2110 722 L 2110.5 799.5 L 2134 799.5 L 2157.5 799.5 L 2157.8 722.1 C 2157.9 666.9 2158.3 644.3 2159.1 643.3 C 2160 642.3 2165.3 642 2183.9 642 C 2196.9 642 2208.1 641.6 2208.8 641.2 C 2209.7 640.5 2210 636.1 2209.8 622.4 L 2209.5 604.5 L 2134.4 604.2 C 2093.1 604.1 2059 604.3 2058.7 604.7 Z" stroke="none" style="fill: rgb(3, 0, 71);"/>
  <path d="M 2237.7 604.7 C 2236.6 605.8 2236.9 727.4 2238 735.3 C 2240.8 755.2 2249.8 772.8 2262.7 783.6 C 2288.5 805.4 2335.9 807.9 2366 789.1 C 2382.7 778.7 2393.5 763.9 2398.7 744.5 C 2400.4 738 2400.5 732.5 2400.5 671 L 2400.5 604.5 L 2377.5 604.5 L 2354.5 604.5 L 2353.9 667 C 2353.3 729.1 2353.1 733.2 2349.7 741.1 C 2347.5 746.2 2339.3 753.1 2333 755.4 C 2325.3 758.2 2310.1 758 2303.4 755.1 C 2296.1 751.8 2289.6 744.4 2287.1 736.3 C 2285.1 729.9 2285 727.7 2285 666.8 L 2285 604 L 2261.7 604 C 2248.8 604 2238 604.3 2237.7 604.7 Z" stroke="none" style="fill: rgb(3, 0, 71);"/>
  <path d="M 2439.2 701.7 L 2439.5 799.5 L 2462.4 799.8 C 2480.1 800 2485.5 799.7 2486.2 798.8 C 2486.6 798.1 2487 782.6 2487 764.3 C 2487 732.6 2487.1 731 2488.9 730.1 C 2490 729.5 2494.7 729.2 2500.2 729.5 C 2505.3 729.8 2515.8 729.6 2523.5 729 C 2538.8 727.9 2546.9 725.8 2558.2 719.8 C 2565.2 716.1 2577.5 704.4 2580.2 699 C 2586.5 685.9 2588 679.6 2588 666.4 C 2588 633.9 2569.7 612.5 2536 605.5 C 2529.9 604.3 2520.2 604 2483.7 604 L 2439 604 L 2439.2 701.7 Z M 2521.7 643.4 C 2534.4 646.1 2541.1 656.2 2539.5 670.3 C 2538.1 682.9 2531.8 689.1 2518.6 690.9 C 2507.9 692.4 2489.7 692.3 2488.2 690.8 C 2486.4 689 2486.5 643.4 2488.3 642.7 C 2490.9 641.6 2515.8 642.1 2521.7 643.4 Z" stroke="none" style="fill: rgb(3, 0, 71);"/>
  <path d="M 1089.5 762.1 C 1041.2 774.7 1020.3 776.7 953.5 775.6 C 931 775.2 908.2 774.7 903 774.5 C 897.8 774.3 863.8 773.9 827.5 773.5 C 761.5 773 730.7 772.5 691.8 771.5 L 671 770.9 L 669.1 774.1 C 668 776 667.4 778 667.8 779 C 668.2 780 680.4 793.1 695 808.1 C 709.6 823.2 723.8 837.8 726.5 840.7 C 764.9 880.5 831 948.7 855.5 973.6 C 866.5 984.8 869.1 987 872.4 987.6 C 874.9 988 877.2 987.8 879.1 986.9 C 880.7 986.1 892.6 975.1 905.5 962.5 C 929.7 938.9 937 931.9 986.6 883.5 C 1002.4 868.1 1020.1 850.8 1026 845 C 1051.7 819.6 1103.8 769 1106.8 766.5 C 1110.4 763.5 1110.9 760.6 1108.1 759 C 1105.6 757.7 1107.2 757.5 1089.5 762.1 Z" stroke="none" style="fill: rgb(3, 0, 71);"/>
  <path d="M 314.7 765.6 C 314.6 765.8 308.8 766 302 766 C 281.2 766.2 252.2 769.4 233 773.5 C 216.4 777 191.9 786.8 178.5 795.3 C 168.7 801.5 156.4 810.4 151.5 814.9 C 122.4 841.2 101.7 876.9 95.5 911.5 C 91 936.5 91.5 959.2 97 985 C 97.5 987.5 98.9 994.2 100 1000 C 103.1 1016.4 107.6 1038.3 111 1053 C 112.7 1060.4 114.7 1069.6 115.6 1073.5 C 116.4 1077.3 117.9 1083.6 118.9 1087.5 C 119.9 1091.3 121.9 1099.4 123.3 1105.5 C 128.4 1126.9 135.1 1154.5 136 1158 C 137.8 1164.4 143.2 1186.5 144 1190.5 C 144.8 1194.6 149.2 1213.2 151.2 1220.8 C 152.6 1226.5 155.5 1230 158.6 1230 C 161.5 1230 162.4 1229.2 229 1164.4 C 238.1 1155.6 253.4 1140.8 263 1131.4 C 272.6 1122.1 288.1 1107.1 297.4 1098 C 306.8 1088.9 316.9 1079 320 1076 C 331.9 1064.2 389 1008.9 398 1000.5 C 403.2 995.6 414.3 985 422.5 977 C 430.8 969 445.1 955 454.4 946 C 463.8 936.9 473.7 927.2 476.4 924.5 C 482.6 918.5 537.7 865.1 544 859 C 550.7 852.7 616.8 788.2 621.8 783.2 C 626.5 778.4 626.9 776.5 623.9 772.6 C 621.8 770 621.4 769.9 613.1 770.1 C 608.4 770.2 592.1 770 577 769.7 C 561.9 769.4 525.7 768.8 496.5 768.5 C 419.4 767.7 378.3 767 363 766.5 C 342.1 765.8 315.1 765.3 314.7 765.6 Z" stroke="none" style="fill: rgb(3, 0, 71);"/>
  <path d="M 654.8 787.1 C 652 788.7 651.1 794.5 651 813 C 650.9 822.6 650.7 837.7 650.5 846.5 C 650.4 855.3 650 885 649.6 912.5 C 649.3 940 648.7 981.2 648.2 1004 C 646.6 1093.8 647.5 1134.3 651.6 1163 C 657.9 1206.7 677.8 1244.4 710.2 1274.4 C 724.9 1287.9 738.9 1296.9 761.5 1307.1 C 780.8 1315.8 803.3 1320.1 829.6 1320.2 C 849.5 1320.2 856 1319.4 881.5 1313.6 C 884.8 1312.8 890.7 1311.5 894.5 1310.7 C 904.9 1308.4 963.8 1294.6 982.9 1289.9 C 992 1287.7 1006.7 1284.1 1015.5 1282 C 1024.3 1279.9 1040.3 1276 1051 1273.5 C 1091.6 1264 1107.6 1259.8 1109.3 1258.3 C 1111.3 1256.4 1111.4 1253.4 1109.6 1250.2 C 1108.5 1248.2 1095.6 1234.5 1070.3 1208.5 C 1066.6 1204.6 1050 1187.6 1033.5 1170.6 C 1017 1153.6 1000.8 1137 997.5 1133.6 C 994.2 1130.3 985.4 1121.2 978 1113.5 C 942.9 1077.2 894.6 1027.4 884.7 1017.4 C 878.7 1011.3 873.5 1005.8 873.1 1005.2 C 872.6 1004.3 848.8 979.7 818 948 C 811.9 941.7 802.7 932.2 797.7 927 C 777.4 905.9 729.8 856.9 719.5 846.4 C 708.9 835.7 686.2 812.1 669.4 794.5 C 661.1 785.8 658.9 784.7 654.8 787.1 Z" stroke="none" style="fill: rgb(3, 0, 71);"/>
  <path d="M 628.2 800.9 C 627.4 801.4 615.9 812.3 602.7 825.2 C 566.3 860.6 566.1 860.8 540 886 C 526.6 898.9 506.1 918.7 494.6 930 C 473.8 950.2 459.4 964.2 435.3 987.5 C 426.2 996.2 422.6 1000.4 421.4 1003.6 C 419.8 1007.9 419.8 1008.1 422.1 1012.4 C 423.6 1015.1 441.7 1034.3 468.5 1061.6 C 517 1111 545.5 1140.2 566.1 1161.5 C 620.2 1217.6 646.3 1244 647.7 1244 C 648.4 1244 649.7 1242.9 650.5 1241.6 C 651.9 1239.5 651.9 1238.8 650.5 1234.9 C 646.2 1223.1 641.8 1204.5 637 1178 C 634.5 1163.8 632.8 1126.3 633.4 1096.5 C 633.7 1080 634.4 1033 634.9 992 C 636.8 851.1 637 834.5 637.6 820 C 638.2 806.2 638.1 805.4 636 802.7 C 633.9 800 630.7 799.3 628.2 800.9 Z" stroke="none" style="fill: rgb(3, 0, 71);"/>
  <path d="M 1685 914.5 C 1666.4 918.6 1651.2 927.9 1643.6 939.8 C 1638.2 948.3 1636.5 952.6 1635 962.3 C 1632.3 978.7 1637.1 995 1647.8 1006.2 C 1657 1015.9 1670.7 1022.7 1698 1031 C 1713 1035.6 1721.9 1040.1 1726.8 1045.4 C 1730.9 1049.8 1731 1050.2 1731 1056.6 C 1731 1064.5 1728.9 1068.6 1723.2 1072.1 C 1720 1074 1718.1 1074.4 1709.5 1074.4 C 1700 1074.5 1699.3 1074.4 1695 1071.5 C 1690.4 1068.3 1686.2 1062.1 1685.1 1056.6 L 1684.4 1053.5 L 1659.5 1053.5 L 1634.5 1053.5 L 1634.2 1056.6 C 1633.8 1060.6 1636.5 1071 1639.6 1077.5 C 1648 1095.1 1668.7 1108.5 1692.9 1112.1 C 1706 1114 1727.7 1112.8 1737.2 1109.7 C 1758.2 1102.8 1772.4 1089.8 1778.5 1072 C 1783.2 1058.5 1782.5 1042.2 1777 1031.2 C 1769.4 1016.5 1758 1008.2 1732.5 999.1 C 1727.6 997.3 1722 995.2 1720.2 994.4 C 1718.4 993.6 1716.3 993 1715.6 993 C 1714.4 993 1709.7 991.1 1698.4 985.9 C 1689.3 981.8 1685 976.2 1685 968.5 C 1685 955.7 1697.8 948 1712.3 952.1 C 1717.6 953.5 1723.8 959.4 1726.6 965.7 L 1728.9 971 L 1753.7 970.8 L 1778.5 970.5 L 1778.2 965 C 1777.6 952 1769.2 937.1 1757.5 928.2 C 1747.5 920.7 1738.1 916.7 1724.4 914.1 C 1716.7 912.7 1692.1 912.9 1685 914.5 Z" stroke="none" style="fill: rgb(3, 0, 71);"/>
  <path d="M 1327.6 916.6 C 1326.8 918.6 1326.8 1108.4 1327.6 1110.4 C 1328.1 1111.8 1331 1112 1349.7 1112 C 1362.6 1112 1371.9 1111.6 1373.1 1111 C 1374.9 1110 1375 1108.5 1375 1072.2 C 1375 1044.1 1375.3 1034.1 1376.2 1033.2 C 1377.1 1032.3 1384.9 1032 1405.1 1032 C 1422.4 1032 1433.1 1031.6 1433.5 1031 C 1434.6 1029.1 1435.1 999 1434 997 C 1433 995.1 1431.7 995 1405.2 995 C 1384.9 995 1377.1 994.7 1376.2 993.8 C 1374.9 992.5 1374.4 958.7 1375.6 955.6 C 1376.1 954.2 1380.5 954 1414.6 954 C 1451.5 954 1453 953.9 1454 952.1 C 1454.6 951 1455 943.1 1455 933.6 C 1455 918.3 1454.9 917 1453.1 916 C 1451.8 915.4 1430.1 915 1389.7 915 C 1334.6 915 1328.2 915.2 1327.6 916.6 Z" stroke="none" style="fill: rgb(3, 0, 71);"/>
  <path d="M 1486.9 916 L 1484.5 916.6 L 1484.2 1013.3 L 1484 1110 L 1486.6 1111 C 1490.6 1112.5 1601.3 1112.3 1602.8 1110.8 C 1603.6 1110 1604 1104.3 1604 1091.8 C 1604 1074.2 1604 1074 1601.8 1073.5 C 1600.5 1073.2 1584.8 1073.1 1566.8 1073.3 C 1545.8 1073.5 1533.6 1073.2 1533 1072.6 C 1532.2 1071.8 1531.4 1031.5 1532.3 1030.8 C 1532.4 1030.7 1546.7 1030.3 1564 1030 L 1595.5 1029.5 L 1595.8 1012.3 C 1596 995.7 1596 995.1 1593.9 994 C 1592.5 993.2 1582.9 992.9 1563.2 993 C 1547.4 993.1 1533.9 993.2 1533.2 993.1 C 1532.2 993 1532 988.8 1532.2 973.7 L 1532.5 954.5 L 1567.4 954.2 C 1593.9 954 1602.6 953.7 1603.2 952.7 C 1604.2 951.2 1604.3 916 1603.3 916 C 1591.7 915.6 1488.6 915.6 1486.9 916 Z" stroke="none" style="fill: rgb(3, 0, 71);"/>
  <path d="M 1806.7 915.8 C 1805.2 916.1 1805 918.1 1805 933.9 C 1805 946.3 1805.4 952 1806.2 952.8 C 1807.1 953.7 1814 954 1831 954 C 1848 954 1854.9 954.3 1855.8 955.2 C 1856.7 956.1 1857 974.8 1857 1033.2 C 1857 1108.5 1857 1109.9 1859 1111 C 1860.2 1111.7 1868.7 1111.9 1882.2 1111.8 L 1903.5 1111.5 L 1904 1033 C 1904.3 989.8 1904.6 954.4 1904.8 954.3 C 1904.9 954.1 1916.4 953.9 1930.3 953.8 L 1955.5 953.5 L 1955.5 934.6 L 1955.5 915.7 L 1881.9 915.6 C 1841.5 915.6 1807.6 915.6 1806.7 915.8 Z" stroke="none" style="fill: rgb(3, 0, 71);"/>
  <path d="M 1986.8 915.7 C 1985.1 916.1 1985 921.6 1985 1013.5 L 1985 1110.8 L 1987.3 1111.4 C 1991.7 1112.6 2029.5 1112.1 2030.8 1110.8 C 2031.7 1109.9 2032 1086.8 2032 1012.9 C 2032 925.7 2031.8 916.2 2030.4 915.6 C 2028.6 914.9 1989.4 915 1986.8 915.7 Z" stroke="none" style="fill: rgb(3, 0, 71);"/>
  <path d="M 2058.8 915.8 C 2056.7 916.2 2056.5 918.2 2058.1 921.2 C 2058.8 922.4 2061.2 929 2063.7 935.9 C 2066.1 942.8 2069.8 953.4 2072 959.5 C 2081.5 986.4 2085 996.1 2088 1004.5 C 2089.8 1009.4 2093.4 1019.8 2096.1 1027.5 C 2098.7 1035.2 2102.3 1045.3 2104 1050 C 2105.7 1054.7 2108.5 1062.3 2110 1067 C 2111.6 1071.7 2113.9 1078 2115 1081 C 2118.9 1091.2 2123.1 1103.5 2123.7 1106 C 2125 1112 2124.9 1112 2153.5 1112 C 2168 1112 2181.2 1111.7 2182.9 1111.4 C 2185.2 1110.9 2186.2 1110 2186.9 1107.6 C 2187.4 1105.9 2188.8 1102 2190 1099 C 2191.2 1096 2192.5 1092.1 2193 1090.5 C 2193.4 1088.8 2194.2 1086.4 2194.8 1085 C 2195.4 1083.6 2197 1079.3 2198.3 1075.5 C 2204.3 1058.6 2208.3 1047.4 2209 1045.5 C 2209.5 1044.4 2210.4 1041.9 2211 1040 C 2215.4 1027 2220.2 1013.7 2222 1009 C 2223.2 1006 2224.5 1002.1 2225 1000.5 C 2225.4 998.8 2228.6 989.8 2232 980.5 C 2235.4 971.1 2239.2 960.3 2240.5 956.5 C 2241.8 952.6 2244.5 945 2246.5 939.5 C 2254 918.8 2254.6 917 2253 916 C 2252.3 915.6 2241.6 915.2 2229.3 915.1 C 2204 915.1 2204.5 914.9 2202.1 923 C 2201.4 925.5 2200.5 928.2 2200 929 C 2199.6 929.9 2198.9 932.1 2198.5 934 C 2198.1 935.9 2197.4 938.1 2197 939 C 2196.5 939.8 2194.6 945.4 2192.6 951.5 C 2188.7 963.8 2187.3 967.9 2185.5 973 C 2184.8 974.9 2179.1 992 2173 1011 C 2157.3 1059.1 2157 1059.9 2155.5 1059.4 C 2154.8 1059.1 2151.2 1049.6 2147.5 1038.2 C 2137.9 1009 2129 981.9 2128.1 979.5 C 2125.8 973.7 2124.7 970.2 2124.3 967.5 C 2124 965.8 2123.4 964 2123 963.5 C 2122.6 962.9 2120.6 957.1 2118.6 950.5 C 2116.5 943.9 2114.2 936.9 2113.5 935 C 2112.8 933.1 2111.2 928.2 2109.9 924.2 C 2108.2 918.6 2107.1 916.6 2105.5 916 C 2103.3 915.2 2062.5 915 2058.8 915.8 Z" stroke="none" style="fill: rgb(3, 0, 71);"/>
  <path d="M 2337.5 916.7 C 2336.8 917.3 2335.1 921.3 2333.6 925.7 C 2332.1 930 2330.3 935.1 2329.5 937 C 2328.8 938.9 2327 943.6 2325.7 947.5 C 2324.3 951.3 2321.1 960.3 2318.5 967.5 C 2315.9 974.6 2312.7 983.6 2311.3 987.5 C 2310 991.3 2308.2 996.1 2307.5 998 C 2306.7 999.9 2304.7 1005.5 2303 1010.5 C 2301.3 1015.4 2299.2 1021.3 2298.3 1023.5 C 2297.5 1025.7 2296.2 1029.1 2295.4 1031 C 2294.7 1032.9 2292.5 1039 2290.6 1044.5 C 2288.7 1050 2285.7 1058.3 2284 1063 C 2282.2 1067.7 2279.5 1075.1 2278 1079.5 C 2276.5 1083.9 2273.7 1091.3 2272 1096 C 2270.2 1100.7 2268.7 1106.1 2268.6 1108 L 2268.5 1111.5 L 2291.7 1111.8 C 2314.9 1112 2314.9 1112 2316.3 1109.8 C 2317.1 1108.5 2319.9 1101.2 2322.5 1093.5 C 2325.1 1085.8 2327.7 1078.9 2328.2 1078.2 C 2329 1077.3 2337.6 1077 2365.1 1077 C 2398.2 1077 2401 1077.1 2401.8 1078.7 C 2402.3 1079.7 2404.9 1087 2407.5 1095 C 2410.2 1103 2413 1110.1 2413.9 1110.7 C 2415 1111.7 2421.4 1112 2438.2 1112 C 2463.5 1112 2463.3 1112 2461.2 1105.7 C 2459.3 1099.7 2452.1 1079.5 2450 1074 C 2448.8 1071 2446.3 1064 2444.4 1058.5 C 2442.5 1053 2440.5 1047.6 2440 1046.5 C 2439.5 1045.4 2438.2 1041.8 2437.1 1038.5 C 2436 1035.2 2433.5 1028.2 2431.5 1023 C 2429.5 1017.8 2426.8 1010.3 2425.5 1006.5 C 2422 996.3 2417.1 983 2416.4 981.8 C 2416 981.2 2415.4 979.4 2415 977.6 C 2414.5 975.9 2413.2 972 2412 969 C 2409.8 963.3 2408.9 960.7 2399.6 934.5 C 2396.1 924.7 2393.2 917.8 2391.9 916.7 C 2390 915.2 2387.3 915 2364.2 915.2 C 2346.5 915.4 2338.3 915.9 2337.5 916.7 Z M 2369 980.5 C 2369.4 982.1 2371.4 988.2 2373.5 994 C 2375.5 999.8 2377.5 1005.8 2377.9 1007.5 C 2378.4 1009.1 2380.9 1016.7 2383.5 1024.2 C 2386 1031.8 2387.8 1038.4 2387.5 1039 C 2387.1 1039.6 2378.5 1040 2364.9 1040 C 2345.7 1040 2342.9 1039.8 2342.3 1038.4 C 2341.7 1036.7 2362.5 972.9 2364.3 971.1 C 2365.4 970 2367 973.3 2369 980.5 Z" stroke="none" style="fill: rgb(3, 0, 71);"/>
  <path d="M 2490.4 916.7 C 2489.2 917.9 2489 931.9 2489 1014 C 2489 1107.8 2489 1110 2490.9 1111 C 2493.1 1112.1 2584.6 1112.4 2593.8 1111.4 L 2599 1110.7 L 2599 1092.9 L 2599 1075 L 2569.9 1075 C 2551.8 1075 2540.1 1074.6 2538.9 1074 C 2537 1073 2537 1071 2537 995 C 2537 920.1 2536.9 917 2535.1 916.1 C 2534.1 915.5 2524.6 915.1 2512.6 915.2 C 2496 915.2 2491.6 915.5 2490.4 916.7 Z" stroke="none" style="fill: rgb(3, 0, 71);"/>
  </svg>